<?xml version="1.0" standalone="no"?>
<!DOCTYPE svg PUBLIC "-//W3C//DTD SVG 20010904//EN"
 "http://www.w3.org/TR/2001/REC-SVG-20010904/DTD/svg10.dtd">
<svg version="1.0" xmlns="http://www.w3.org/2000/svg"
 width="128.000000pt" height="128.000000pt" viewBox="0 0 128.000000 128.000000"
 preserveAspectRatio="xMidYMid meet">
<metadata>
Created by potrace 1.11, written by Peter Selinger 2001-2013
</metadata>
<g transform="translate(0.000000,128.000000) scale(0.100000,-0.100000)"
fill="#000000" stroke="none">
<path d="M820 1177 c36 -13 79 -31 96 -40 49 -25 139 -112 175 -168 37 -58 41
-51 -66 -106 -38 -19 -108 -56 -154 -81 l-84 -45 38 -18 c21 -11 45 -25 54
-33 9 -7 34 -17 56 -20 62 -11 105 -26 105 -38 0 -6 3 -9 6 -5 10 10 92 -78
99 -106 10 -36 -8 -83 -61 -162 -25 -37 -43 -69 -41 -71 2 -2 19 12 37 31 19
19 40 35 47 35 7 0 21 -15 30 -34 15 -33 15 -36 -11 -88 l-27 -53 26 30 c62
70 84 187 51 267 -11 25 -12 45 -6 74 13 52 12 198 -1 254 -24 104 -97 217
-189 293 -54 46 -150 93 -205 102 -32 5 -28 2 25 -18z"/>
<path d="M110 1050 c-21 -39 -24 -125 -6 -179 13 -42 14 -59 5 -96 -19 -75 -7
-238 24 -312 49 -120 135 -218 242 -278 84 -48 161 -65 275 -64 l95 2 -100 8
c-169 13 -201 34 -213 137 -4 37 -13 53 -48 87 -41 39 -56 77 -35 89 5 3 33
-2 62 -10 51 -15 54 -15 64 2 22 41 143 152 193 176 l52 26 -49 7 c-47 6 -55
3 -272 -104 l-223 -110 -11 27 c-7 17 -8 45 -3 77 4 27 10 66 12 85 6 49 24
122 52 210 13 41 24 75 24 76 0 1 -14 7 -31 14 -26 11 -32 11 -40 -1 -15 -23
-10 0 6 31 24 47 9 35 -21 -16 -27 -46 -27 -46 -40 -23 -16 29 -18 88 -4 125
13 33 6 43 -10 14z"/>
</g>
</svg>
